<?xml version="1.0" standalone="no"?>
<!DOCTYPE svg PUBLIC "-//W3C//DTD SVG 20010904//EN"
 "http://www.w3.org/TR/2001/REC-SVG-20010904/DTD/svg10.dtd">
<svg version="1.0" xmlns="http://www.w3.org/2000/svg"
 width="1495.000000pt" height="1495.000000pt" viewBox="0 0 1495.000000 1495.000000"
 preserveAspectRatio="xMidYMid meet">
<metadata>
Created by potrace 1.14, written by Peter Selinger 2001-2017
</metadata>
<g transform="translate(0.000000,1495.000000) scale(0.100000,-0.100000)"
fill="#000000" stroke="none">
<path d="M8215 13824 c-479 -38 -802 -87 -1160 -175 -717 -179 -1365 -465
-1995 -882 -356 -235 -653 -479 -965 -792 -998 -997 -1636 -2287 -1814 -3665
-24 -181 -39 -351 -31 -348 753 377 1002 495 1375 653 852 360 1599 603 2435
794 626 142 1346 239 2025 272 341 17 1017 6 1345 -20 1019 -83 1957 -277
2960 -610 755 -252 1404 -523 2178 -913 235 -118 352 -172 352 -162 0 44 -34
331 -56 474 -187 1213 -713 2324 -1550 3270 -136 154 -458 469 -619 605 -918
776 -2089 1299 -3235 1445 -354 45 -451 52 -825 55 -203 1 -392 1 -420 -1z
m-1671 -2654 c112 -28 190 -73 276 -160 189 -189 233 -461 113 -700 -48 -94
-152 -202 -244 -254 -186 -103 -418 -100 -605 9 -70 40 -183 159 -222 232 -94
177 -94 399 0 576 43 81 164 202 245 245 133 70 293 89 437 52z m4418 -13
c138 -50 239 -130 317 -249 59 -89 83 -171 89 -299 7 -180 -40 -308 -164 -438
-69 -74 -141 -121 -242 -159 -58 -22 -83 -26 -192 -26 -104 0 -135 3 -187 22
-192 68 -334 214 -395 405 -27 84 -29 248 -4 332 64 216 237 382 451 431 91
21 243 12 327 -19z m-7361 -1175 c138 -39 252 -152 293 -291 32 -111 13 -254
-48 -349 -103 -161 -308 -238 -488 -182 -160 49 -270 177 -300 348 -10 60 -9
82 5 148 54 249 294 394 538 326z m10254 -20 c273 -128 339 -470 134 -687
-243 -257 -671 -123 -732 229 -36 212 100 421 314 481 86 24 203 14 284 -23z"/>
<path d="M8430 8904 c-14 -2 -56 -9 -95 -15 -138 -22 -353 -109 -474 -191
-334 -228 -541 -550 -651 -1013 -89 -373 -128 -859 -115 -1423 6 -280 5 -305
-11 -323 -16 -18 -38 -19 -580 -19 l-563 0 -19 24 c-17 22 -20 49 -25 233 -8
239 -29 495 -58 703 -74 528 -191 837 -398 1054 -333 348 -782 333 -1030 -33
-88 -130 -151 -300 -151 -409 0 -363 300 -873 833 -1418 l79 -82 -12 -36 -12
-36 -1241 0 -1242 0 -16 29 c-16 28 -16 32 18 123 85 225 142 546 143 798 1
472 -166 701 -450 620 -83 -24 -98 -26 -120 -16 -13 5 -15 -11 -13 -121 22
-1193 383 -2364 1037 -3358 113 -172 215 -314 313 -437 29 -37 53 -71 53 -76
0 -6 -66 -39 -147 -75 -541 -237 -1066 -347 -1663 -347 -584 0 -1114 115
-1645 356 -117 54 -142 62 -153 50 -11 -11 -3 -30 49 -117 216 -361 422 -623
723 -924 348 -347 713 -609 1156 -831 494 -248 943 -379 1540 -451 175 -21
684 -24 880 -4 527 52 1042 202 1523 442 l140 71 71 -31 c541 -231 1158 -393
1761 -460 1006 -113 2004 10 2959 366 1783 662 3208 2152 3799 3969 196 602
289 1144 313 1813 l7 194 -22 -15 c-17 -12 -31 -14 -53 -7 -16 4 -66 6 -110 4
-107 -5 -171 -36 -264 -129 -119 -120 -219 -309 -314 -595 -64 -196 -150 -551
-194 -803 l-7 -38 -518 0 -518 0 -21 23 c-21 22 -22 28 -12 98 38 280 65 754
56 987 -19 496 -107 785 -300 976 -341 341 -888 169 -1156 -363 -44 -87 -94
-246 -116 -366 -26 -138 -26 -476 0 -620 34 -192 88 -380 167 -578 39 -97 39
-99 22 -128 l-17 -29 -1241 0 -1241 0 -13 36 -13 35 184 187 c280 285 444 502
558 737 68 139 112 267 136 392 21 106 23 306 5 413 -30 169 -132 418 -240
580 -195 295 -504 509 -846 585 -67 15 -369 29 -425 19z"/>
</g>
</svg>
